<svg class="thumb" width="915" height="246" viewBox="0,0,915,246" xmlns="http://www.w3.org/2000/svg" xmlns:inkscape="http://www.inkscape.org/namespaces/inkscape" xmlns:sodipodi="http://sodipodi.sourceforge.net/DTD/sodipodi-0.dtd" xmlns:xlink="http://www.w3.org/1999/xlink" xmlns:ns1="http://www.inkscape.org/namespaces/inkscape" xmlns:sketch="http://www.bohemiancoding.com/sketch/ns" data-guid="88245208-011b-4b73-9b83-971246e5aad0"><defs></defs><g><g transform="matrix(0.6846,0,0,-0.6846,231.1803,123.4554)"><svg width="185.988" height="162.359" viewBox="-4.609,3,185.988,162.359" class="thumb"><defs><linearGradient x1="0" y1="0.5" x2="1" y2="0.5" id="linearGradientSjwpv6uf9mp6"><stop offset="0%" stop-color="#e36bb1"></stop><stop offset="100%" stop-color="#e36bb1"></stop></linearGradient></defs><g><polygon points="88.385,8 0.391,160.359 176.379,160.359 " fill="url('#linearGradientSjwpv6uf9mp6')"></polygon></g></svg></g><g transform="matrix(0.6846,0,0,0.6846,349.1803,6.5446)"><svg width="185.988" height="162.359" viewBox="-4.609,3,185.988,162.359" class="thumb"><defs><linearGradient x1="0" y1="0.5" x2="1" y2="0.5" id="linearGradientSjwpv6uf9mpc"><stop offset="0%" stop-color="#ffc400"></stop><stop offset="100%" stop-color="#ffc400"></stop></linearGradient></defs><g><polygon points="88.385,8 0.391,160.359 176.379,160.359 " fill="url('#linearGradientSjwpv6uf9mpc')"></polygon></g></svg></g><g transform="matrix(0.6846,0,0,0.6846,562.1803,4.5446)"><svg width="185.988" height="162.359" viewBox="-4.609,3,185.988,162.359" class="thumb"><defs><linearGradient x1="0" y1="0.5" x2="1" y2="0.5" id="linearGradientSjwpv6uf9mpi"><stop offset="0%" stop-color="#8dcaff"></stop><stop offset="100%" stop-color="#8dcaff"></stop></linearGradient></defs><g><polygon points="88.385,8 0.391,160.359 176.379,160.359 " fill="url('#linearGradientSjwpv6uf9mpi')"></polygon></g></svg></g><g transform="matrix(0.6846,0,0,-0.6846,452.1803,120.4554)"><svg width="185.988" height="162.359" viewBox="-4.609,3,185.988,162.359" class="thumb"><defs><linearGradient x1="0" y1="0.5" x2="1" y2="0.5" id="linearGradientSjwpv6uf9mpo"><stop offset="0%" stop-color="#e84723"></stop><stop offset="100%" stop-color="#e84723"></stop></linearGradient></defs><g><polygon points="88.385,8 0.391,160.359 176.379,160.359 " fill="url('#linearGradientSjwpv6uf9mpo')"></polygon></g></svg></g><g transform="matrix(1.0223,0,0,1.0223,226.4024,118.734)"><svg width="453.1" height="185" style="overflow: visible;"><defs><linearGradient x1="0" y1="0.5" x2="1" y2="0.5" id="linearGradientSjwpv6uf9mpw"><stop offset="0%" stop-color="#000000"></stop><stop offset="100%" stop-color="#000000"></stop></linearGradient></defs><g transform="matrix(1,0,0,1,0,93.75)"><path d="M 29.8 15.2L 23.5 15.2Q 16.9 15.2  13.8 12.15Q 10.7 9.1  10.7 1L 10.7 1Q 10.7-1.7  10.85-3.8Q 11-5.9  11.2-7.85Q 11.4-9.8  11.55-11.75Q 11.7-13.7  11.7-16.1L 11.7-16.1Q 11.7-17.4  11.25-18.7Q 10.8-20  9.8-21.05Q 8.8-22.1  7.15-22.75Q 5.5-23.4  3.1-23.5L 3.1-23.5L 3.1-32.1Q 5.5-32.2  7.15-32.85Q 8.8-33.5  9.8-34.55Q 10.8-35.6  11.25-36.9Q 11.7-38.2  11.7-39.5L 11.7-39.5Q 11.7-41.9  11.55-43.85Q 11.4-45.8  11.2-47.75Q 11-49.7  10.85-51.8Q 10.7-53.9  10.7-56.6L 10.7-56.6Q 10.7-64.7  13.8-67.75Q 16.9-70.8  23.5-70.8L 23.5-70.8L 29.8-70.8L 29.8-63L 27.9-63Q 24.8-63  23.7-61.55Q 22.6-60.1  22.6-56L 22.6-56Q 22.6-51.9  22.8-48.1Q 23-44.3  23-39.7L 23-39.7Q 23-34  21.2-31.45Q 19.4-28.9  15.6-28L 15.6-28L 15.6-27.6Q 19.4-26.7  21.2-24.15Q 23-21.6  23-15.9L 23-15.9Q 23-11.3  22.8-7.5Q 22.6-3.7  22.6 0.4L 22.6 0.4Q 22.6 4.5  23.7 5.95Q 24.8 7.4  27.9 7.4L 27.9 7.4L 29.8 7.4L 29.8 15.2ZM 60.00000000000001 1.2L 60.00000000000001 1.2Q 55.400000000000006 1.2  52.150000000000006-0.2Q 48.900000000000006-1.6  46.85000000000001-4.1Q 44.800000000000004-6.6  43.85000000000001-10.15Q 42.900000000000006-13.7  42.900000000000006-18L 42.900000000000006-18L 42.900000000000006-38.1L 36.10000000000001-38.1L 36.10000000000001-49L 43.7-49.6L 45.400000000000006-62.8L 57.60000000000001-62.8L 57.60000000000001-49.6L 69.5-49.6L 69.5-38.1L 57.60000000000001-38.1L 57.60000000000001-18.2Q 57.60000000000001-14  59.35000000000001-12.15Q 61.10000000000001-10.3  64-10.3L 64-10.3Q 65.2-10.3  66.45-10.6Q 67.7-10.9  68.7-11.3L 68.7-11.3L 71-0.6Q 69 0  66.30000000000001 0.6Q 63.60000000000001 1.2  60.00000000000001 1.2ZM 84.7 19.4L 84.7 19.4Q 82.4 19.4  80.8 19.15Q 79.2 18.9  77.7 18.4L 77.7 18.4L 80.3 7.2Q 81 7.4  81.9 7.6Q 82.8 7.8  83.60000000000001 7.8L 83.60000000000001 7.8Q 87.3 7.8  89.30000000000001 6Q 91.30000000000001 4.2  92.30000000000001 1.3L 92.30000000000001 1.3L 93-1.3L 73.9-49.6L 88.7-49.6L 95.80000000000001-28.3Q 96.9-24.9  97.80000000000001-21.4Q 98.7-17.9  99.7-14.2L 99.7-14.2L 100.1-14.2Q 100.9-17.7  101.75-21.25Q 102.6-24.8  103.5-28.3L 103.5-28.3L 109.5-49.6L 123.6-49.6L 106.4 0.5Q 104.6 5.2  102.65 8.75Q 100.7 12.3  98.15 14.65Q 95.6 17  92.35 18.2Q 89.1 19.4  84.7 19.4ZM 145.99999999999997 18.4L 131.29999999999998 18.4L 131.29999999999998-49.6L 143.29999999999998-49.6L 144.29999999999998-44.7L 144.7-44.7Q 147.6-47.3  151.24999999999997-49.05Q 154.89999999999998-50.8  158.79999999999998-50.8L 158.79999999999998-50.8Q 163.29999999999998-50.8  166.89999999999998-49Q 170.5-47.2  173-43.9Q 175.5-40.6  176.84999999999997-35.95Q 178.2-31.3  178.2-25.6L 178.2-25.6Q 178.2-19.2  176.45-14.25Q 174.7-9.3  171.75-5.85Q 168.79999999999998-2.4  165.04999999999998-0.6Q 161.29999999999998 1.2  157.29999999999998 1.2L 157.29999999999998 1.2Q 154.1 1.2  151.1-0.15Q 148.1-1.5  145.49999999999997-4L 145.49999999999997-4L 145.99999999999997 3.9L 145.99999999999997 18.4ZM 153.89999999999998-10.8L 153.89999999999998-10.8Q 157.7-10.8  160.39999999999998-14.25Q 163.09999999999997-17.7  163.09999999999997-25.4L 163.09999999999997-25.4Q 163.09999999999997-38.8  154.49999999999997-38.8L 154.49999999999997-38.8Q 150.2-38.8  145.99999999999997-34.3L 145.99999999999997-34.3L 145.99999999999997-14Q 147.99999999999997-12.2  149.99999999999997-11.5Q 151.99999999999997-10.8  153.89999999999998-10.8ZM 210.79999999999998 1.2L 210.79999999999998 1.2Q 205.5 1.2  200.9-0.55Q 196.29999999999998-2.3  192.9-5.65Q 189.5-9  187.6-13.8Q 185.7-18.6  185.7-24.8L 185.7-24.8Q 185.7-30.8  187.7-35.65Q 189.7-40.5  192.95-43.85Q 196.2-47.2  200.4-49Q 204.6-50.8  209.1-50.8L 209.1-50.8Q 214.39999999999998-50.8  218.35-49Q 222.3-47.2  224.95-44Q 227.6-40.8  228.89999999999998-36.45Q 230.2-32.1  230.2-27L 230.2-27Q 230.2-25  230-23.2Q 229.8-21.4  229.6-20.5L 229.6-20.5L 199.9-20.5Q 200.9-15.1  204.35-12.55Q 207.79999999999998-10  212.79999999999998-10L 212.79999999999998-10Q 218.1-10  223.5-13.3L 223.5-13.3L 228.39999999999998-4.4Q 224.6-1.8  219.95-0.3Q 215.3 1.2  210.79999999999998 1.2ZM 199.79999999999998-30.2L 199.79999999999998-30.2L 217.7-30.2Q 217.7-34.4  215.8-37Q 213.9-39.6  209.4-39.6L 209.4-39.6Q 205.9-39.6  203.25-37.3Q 200.6-35  199.79999999999998-30.2ZM 237.49999999999997 19.6L 237.49999999999997 19.6Q 234.39999999999998 19.6 232.34999999999997 19.2Q 230.29999999999998 18.8 228.79999999999998 18.2L 228.79999999999998 18.2L 231.39999999999998 7.4Q 232.39999999999998 7.7 233.29999999999998 7.9Q 234.2 8.1  235.29999999999998 8.1L 235.29999999999998 8.1Q 238.2 8.1  239.34999999999997 6.2Q 240.49999999999997 4.3  240.49999999999997 0.1L 240.49999999999997 0.1L 240.49999999999997-49.6L 255.2-49.6L 255.2-0.3Q 255.2 3.8  254.34999999999997 7.4Q 253.49999999999997 11  251.45 13.7Q 249.39999999999998 16.4  245.99999999999997 18Q 242.59999999999997 19.6  237.49999999999997 19.6ZM 247.89999999999998-56.9L 247.89999999999998-56.9Q 244.2-56.9  241.79999999999998-59.05Q 239.39999999999998-61.2  239.39999999999998-64.6L 239.39999999999998-64.6Q 239.39999999999998-68  241.79999999999998-70.1Q 244.2-72.2  247.89999999999998-72.2L 247.89999999999998-72.2Q 251.59999999999997-72.2  253.99999999999997-70.1Q 256.4-68  256.4-64.6L 256.4-64.6Q 256.4-61.2  253.99999999999997-59.05Q 251.59999999999997-56.9  247.89999999999998-56.9ZM 282.8 1.2L 282.8 1.2Q 277.9 1.2  272.75-0.7Q 267.59999999999997-2.6  263.8-5.7L 263.8-5.7L 270.4-14.9Q 273.8-12.3  276.9-11Q 280-9.7  283.2-9.7L 283.2-9.7Q 286.5-9.7  288-10.8Q 289.5-11.9  289.5-13.9L 289.5-13.9Q 289.5-15.1  288.65-16.05Q 287.8-17  286.34999999999997-17.8Q 284.9-18.6  283.09999999999997-19.25Q 281.3-19.9  279.4-20.7L 279.4-20.7Q 277.09999999999997-21.6  274.8-22.8Q 272.5-24  270.59999999999997-25.75Q 268.7-27.5  267.5-29.85Q 266.3-32.2  266.3-35.3L 266.3-35.3Q 266.3-38.7  267.65-41.6Q 269-44.5  271.5-46.5Q 274-48.5  277.5-49.65Q 281-50.8  285.3-50.8L 285.3-50.8Q 291-50.8  295.3-48.85Q 299.59999999999997-46.9  302.8-44.5L 302.8-44.5L 296.2-35.7Q 293.5-37.7  290.9-38.8Q 288.3-39.9  285.7-39.9L 285.7-39.9Q 280.09999999999997-39.9  280.09999999999997-36L 280.09999999999997-36Q 280.09999999999997-34.8  280.9-33.95Q 281.7-33.1  283.05-32.4Q 284.4-31.7  286.15-31.05Q 287.9-30.4  289.8-29.7L 289.8-29.7Q 292.2-28.8  294.55-27.65Q 296.9-26.5  298.84999999999997-24.8Q 300.8-23.1  302-20.65Q 303.2-18.2  303.2-14.8L 303.2-14.8Q 303.2-11.4  301.9-8.5Q 300.59999999999997-5.6  298-3.45Q 295.4-1.3  291.59999999999997-0.05Q 287.8 1.2  282.8 1.2ZM 333.79999999999995 1.2L 333.79999999999995 1.2Q 329.09999999999997 1.2  324.69999999999993-0.55Q 320.29999999999995-2.3  316.94999999999993-5.6Q 313.59999999999997-8.9  311.59999999999997-13.75Q 309.59999999999997-18.6  309.59999999999997-24.8L 309.59999999999997-24.8Q 309.59999999999997-31  311.59999999999997-35.85Q 313.59999999999997-40.7  316.94999999999993-44Q 320.29999999999995-47.3  324.69999999999993-49.05Q 329.09999999999997-50.8  333.79999999999995-50.8L 333.79999999999995-50.8Q 338.49999999999994-50.8  342.84999999999997-49.05Q 347.19999999999993-47.3  350.54999999999995-44Q 353.8999999999999-40.7  355.8999999999999-35.85Q 357.8999999999999-31  357.8999999999999-24.8L 357.8999999999999-24.8Q 357.8999999999999-18.6  355.8999999999999-13.75Q 353.8999999999999-8.9  350.54999999999995-5.6Q 347.19999999999993-2.3  342.84999999999997-0.55Q 338.49999999999994 1.2  333.79999999999995 1.2ZM 333.79999999999995-10.7L 333.79999999999995-10.7Q 338.29999999999995-10.7  340.59999999999997-14.5Q 342.8999999999999-18.3  342.8999999999999-24.8L 342.8999999999999-24.8Q 342.8999999999999-31.3  340.59999999999997-35.1Q 338.29999999999995-38.9  333.79999999999995-38.9L 333.79999999999995-38.9Q 329.19999999999993-38.9  326.94999999999993-35.1Q 324.69999999999993-31.3  324.69999999999993-24.8L 324.69999999999993-24.8Q 324.69999999999993-18.3  326.94999999999993-14.5Q 329.19999999999993-10.7  333.79999999999995-10.7ZM 382.69999999999993 0L 367.99999999999994 0L 367.99999999999994-49.6L 379.99999999999994-49.6L 380.99999999999994-43.3L 381.3999999999999-43.3Q 384.59999999999997-46.3  388.3999999999999-48.55Q 392.19999999999993-50.8  397.29999999999995-50.8L 397.29999999999995-50.8Q 405.3999999999999-50.8  409.04999999999995-45.5Q 412.69999999999993-40.2  412.69999999999993-30.8L 412.69999999999993-30.8L 412.69999999999993 0L 397.99999999999994 0L 397.99999999999994-28.9Q 397.99999999999994-34.3  396.54999999999995-36.3Q 395.09999999999997-38.3  391.8999999999999-38.3L 391.8999999999999-38.3Q 389.09999999999997-38.3  387.09999999999997-37.05Q 385.09999999999997-35.8  382.69999999999993-33.5L 382.69999999999993-33.5L 382.69999999999993 0ZM 429.5999999999999 15.2L 423.29999999999995 15.2L 423.29999999999995 7.4L 425.19999999999993 7.4Q 428.29999999999995 7.4  429.3999999999999 5.95Q 430.49999999999994 4.5  430.49999999999994 0.4L 430.49999999999994 0.4Q 430.49999999999994-3.7  430.29999999999995-7.5Q 430.0999999999999-11.3  430.0999999999999-15.9L 430.0999999999999-15.9Q 430.0999999999999-21.6  431.8999999999999-24.15Q 433.69999999999993-26.7  437.49999999999994-27.6L 437.49999999999994-27.6L 437.49999999999994-28Q 433.69999999999993-28.9  431.8999999999999-31.45Q 430.0999999999999-34  430.0999999999999-39.7L 430.0999999999999-39.7Q 430.0999999999999-44.3  430.29999999999995-48.1Q 430.49999999999994-51.9  430.49999999999994-56L 430.49999999999994-56Q 430.49999999999994-60.1  429.3999999999999-61.55Q 428.29999999999995-63  425.19999999999993-63L 425.19999999999993-63L 423.29999999999995-63L 423.29999999999995-70.8L 429.5999999999999-70.8Q 436.19999999999993-70.8  439.29999999999995-67.75Q 442.3999999999999-64.7  442.3999999999999-56.6L 442.3999999999999-56.6Q 442.3999999999999-53.9  442.24999999999994-51.8Q 442.0999999999999-49.7  441.8999999999999-47.75Q 441.69999999999993-45.8  441.54999999999995-43.85Q 441.3999999999999-41.9  441.3999999999999-39.5L 441.3999999999999-39.5Q 441.3999999999999-38.2  441.8499999999999-36.9Q 442.29999999999995-35.6  443.29999999999995-34.55Q 444.29999999999995-33.5  445.94999999999993-32.85Q 447.5999999999999-32.2  449.99999999999994-32.1L 449.99999999999994-32.1L 449.99999999999994-23.5Q 447.5999999999999-23.4  445.94999999999993-22.75Q 444.29999999999995-22.1  443.29999999999995-21.05Q 442.29999999999995-20  441.8499999999999-18.7Q 441.3999999999999-17.4  441.3999999999999-16.1L 441.3999999999999-16.1Q 441.3999999999999-13.7  441.54999999999995-11.75Q 441.69999999999993-9.8  441.8999999999999-7.85Q 442.0999999999999-5.9  442.24999999999994-3.8Q 442.3999999999999-1.7  442.3999999999999 1L 442.3999999999999 1Q 442.3999999999999 9.1  439.29999999999995 12.15Q 436.19999999999993 15.2  429.5999999999999 15.2L 429.5999999999999 15.2Z" data-textpath="{typejson}" data-text-anchor="middle" data-font-size="100" data-letterspacing="0" data-side="left" data-offset="0.5" data-dx="0" data-dy="0" data-xmlspace="preserve" data-href="" data-font="Source Sans Pro" data-font-src="/Content/clientfonts/sourcesanspro-bold.woff" data-font-scale="contain" transform="translate(0,0)" data-x="0" data-y="0" fill="url('#linearGradientSjwpv6uf9mpw')"></path></g></svg></g><g transform="matrix(2.0446,0,0,2.0446,438.5846,0.0316)"><svg width="70.02499999999999" height="62.82261904761904" viewBox="13.275000000000002,18.041666666666668,70.02499999999999,62.82261904761904"><defs><linearGradient x1="0" y1="0.5" x2="1" y2="0.5" id="linearGradientSjwpv6uf9mq1"><stop offset="0%" stop-color="#000000"></stop><stop offset="100%" stop-color="#000000"></stop></linearGradient></defs><g><path fill="url('#linearGradientSjwpv6uf9mq1')" stroke="none" d=" M 76.8 23.05 L 70.65 23.05 20.05 23.05 Q 19.5 23 19.1 23.25 19 23.3 18.85 23.45 18.45 23.75 18.3 24.35 18.2 24.8 18.5 25.35 L 21.45 30.7 46.35 75 Q 46.85 75.7 47.55 75.8 48.15 75.95 48.5 75.75 L 49.4 74.85 77.65 26.15 Q 77.8 26.1 78 25.55 78.3 25.1 78.3 24.65 78.3 24.55 78.3 24.5 78.3 24.25 78.15 24.05 77.95 23.5 77.55 23.25 77.4 23.15 77.15 23.05 76.95 23.05 76.8 23.05 M 73.45 27.95 L 73.05 28.75 57.6 54.6 55.8 53.3 41.5 43.4 73.45 27.95 M 71.25 25.95 L 71.7 26 32.6 44.35 22.35 26.1 71.25 25.95 M 34.05 47 L 38.45 44.9 55.95 57.1 Q 56 57.2 56.1 57.2 L 47.8 71.55 34.05 47 Z"></path></g></svg></g><g transform="matrix(2.0446,0,0,2.0446,334.3076,0.0316)"><svg width="70.47142857142856" height="62.91" viewBox="17.07857142857143,14.939999999999998,70.47142857142856,62.91"><defs><linearGradient x1="0" y1="0.5" x2="1" y2="0.5" id="linearGradientSjwpv6uf9mq7"><stop offset="0%" stop-color="#000000"></stop><stop offset="100%" stop-color="#000000"></stop></linearGradient></defs><g><path fill="url('#linearGradientSjwpv6uf9mq7')" stroke="none" d=" M 82.55 71 Q 82.55 70.8 82.4 70.6 82.05 69.8 81.9 69.75 L 55.85 24.6 Q 54.15 21.6 53.7 21.1 53.55 20.6 52.8 20.1 52.35 19.9 51.85 19.95 51.1 20.1 50.65 20.7 L 41.75 36.45 24.15 66.6 Q 22.4 69.35 22.15 70.85 L 22.1 71.25 22.1 71.3 Q 21.95 72.3 22.85 72.75 L 23.65 72.85 65.7 72.55 81.8 72.2 82.3 72.05 82.4 71.85 Q 82.55 71.7 82.55 71 M 45 36.95 L 52.1 24.5 78.25 69.3 64.1 69.3 52.8 49.6 Q 46.8 39.65 45.45 37.55 45.25 37.2 45 36.95 M 43.2 39.9 L 49.1 49.2 60.45 69.25 46.1 69.25 37.15 53.45 Q 36.45 52.1 36.2 51.95 L 43.2 39.9 M 26.5 69.3 L 34.8 55.6 42.8 69 28.1 69.3 Q 27.2 69.3 26.5 69.3 Z"></path></g></svg></g><g transform="matrix(2.0446,0,0,2.0446,227.987,0.0316)"><svg width="72.79516129032257" height="62.93333333333334" viewBox="12.80483870967742,18.5,72.79516129032257,62.93333333333334"><defs><linearGradient x1="0" y1="0.5" x2="1" y2="0.5" id="linearGradientSjwpv6uf9mqd"><stop offset="0%" stop-color="#000000"></stop><stop offset="100%" stop-color="#000000"></stop></linearGradient></defs><g><path fill="url('#linearGradientSjwpv6uf9mqd')" stroke="none" d=" M 78.45 23.55 Q 77.7 23.5 76.65 23.5 L 20.1 23.55 Q 19.35 23.4 18.45 23.85 17.45 24.55 18 25.8 L 46.7 75.3 Q 47 76.25 47.8 76.3 48.3 76.5 48.4 76.4 L 48.85 76.3 Q 49.35 76.25 50.05 75.3 L 79.95 26.8 Q 81.25 25.15 79.95 23.9 79.75 23.65 78.45 23.55 M 74.6 29.7 L 74.4 30.1 59.65 53.9 37.95 53.9 22.15 26.6 76.6 26.6 74.6 29.7 M 57.65 57 L 48.35 72.05 39.7 57 57.65 57 Z"></path></g></svg></g><g transform="matrix(2.0446,0,0,-2.0446,544.9056,126.7992)"><svg width="70.47142857142859" height="62.91" viewBox="16.05,17.95,70.47142857142859,62.91"><defs><linearGradient x1="0" y1="0.5" x2="1" y2="0.5" id="linearGradientSjwpv6uf9mqj"><stop offset="0%" stop-color="#000000"></stop><stop offset="100%" stop-color="#000000"></stop></linearGradient></defs><g><path fill="url('#linearGradientSjwpv6uf9mqj')" stroke="none" d=" M 81.5 24.55 L 81.5 24.5 Q 81.65 23.5 80.75 23.05 L 79.95 22.95 37.9 23.25 21.8 23.6 21.3 23.75 21.2 23.95 Q 21.05 24.1 21.05 24.8 21.05 25 21.2 25.2 21.55 26 21.7 26.05 L 47.75 71.2 Q 49.45 74.2 49.9 74.7 50.05 75.2 50.8 75.7 51.25 75.9 51.75 75.85 52.5 75.7 52.95 75.1 L 61.85 59.35 79.45 29.2 Q 81.2 26.45 81.45 24.95 L 81.5 24.55 M 43.15 26.55 L 57.5 26.55 66.45 42.35 Q 67.15 43.7 67.4 43.85 L 60.4 55.9 54.5 46.6 43.15 26.55 M 75.5 26.5 Q 76.4 26.5 77.1 26.5 L 68.8 40.2 60.8 26.8 75.5 26.5 M 25.35 26.5 L 39.5 26.5 50.8 46.2 Q 56.8 56.15 58.15 58.25 58.35 58.6 58.6 58.85 L 51.5 71.3 25.35 26.5 Z"></path></g></svg></g></g></svg>
